<?xml version="1.0" standalone="no"?>
<!DOCTYPE svg PUBLIC "-//W3C//DTD SVG 20010904//EN"
 "http://www.w3.org/TR/2001/REC-SVG-20010904/DTD/svg10.dtd">
<svg version="1.0" xmlns="http://www.w3.org/2000/svg"
 width="700.000000pt" height="700.000000pt" viewBox="0 0 700.000000 700.000000"
 preserveAspectRatio="xMidYMid meet">
<metadata>
Created by potrace 1.14, written by Peter Selinger 2001-2017
</metadata>
<g transform="translate(0.000000,700.000000) scale(0.100000,-0.100000)"
fill="#000000" stroke="none">
<path d="M6280 6991 c-54 -17 -3548 -1771 -3579 -1796 -17 -15 -42 -46 -54
-69 l-22 -41 -3 -715 -3 -715 -1256 -419 c-1251 -417 -1256 -419 -1298 -460
-26 -27 -46 -58 -53 -86 -10 -35 -12 -331 -10 -1291 l3 -1246 30 -48 c22 -36
45 -57 84 -77 l53 -28 2007 0 c1271 0 2019 4 2041 10 47 13 106 63 133 113 21
41 22 52 25 400 l4 357 214 0 214 0 0 -338 c0 -394 3 -415 74 -480 24 -22 61
-45 82 -51 26 -7 270 -11 730 -11 l690 0 55 28 c35 18 64 42 84 70 l30 44 0
3358 0 3358 -30 44 c-53 75 -161 115 -245 89z m-160 -3561 l0 -2990 -435 0
-435 0 0 341 c0 227 -4 354 -11 380 -16 52 -61 103 -112 128 -42 20 -57 21
-533 21 -455 0 -492 -2 -529 -19 -22 -10 -52 -31 -67 -47 -56 -61 -58 -72 -58
-454 l0 -350 -440 0 -440 0 0 2228 0 2227 1523 762 c837 419 1525 762 1530
762 4 1 7 -1344 7 -2989z m-3500 -1615 l0 -1375 -1090 0 -1090 0 0 1014 0
1014 1078 360 c592 198 1083 361 1090 361 9 1 12 -280 12 -1374z"/>
<path d="M5250 5470 l0 -220 220 0 220 0 0 220 0 220 -220 0 -220 0 0 -220z"/>
<path d="M3500 4590 l0 -220 218 2 217 3 3 218 2 217 -220 0 -220 0 0 -220z"/>
<path d="M4372 4593 l3 -218 218 -3 217 -2 0 220 0 220 -220 0 -220 0 2 -217z"/>
<path d="M5250 4590 l0 -220 218 2 217 3 3 218 2 217 -220 0 -220 0 0 -220z"/>
<path d="M3500 3720 l0 -220 220 0 220 0 0 220 0 220 -220 0 -220 0 0 -220z"/>
<path d="M4377 3933 c-4 -3 -7 -102 -7 -220 l0 -213 220 0 220 0 0 220 0 220
-213 0 c-118 0 -217 -3 -220 -7z"/>
<path d="M5250 3720 l0 -220 220 0 220 0 0 220 0 220 -220 0 -220 0 0 -220z"/>
<path d="M3500 2840 l0 -220 218 2 217 3 3 218 2 217 -220 0 -220 0 0 -220z"/>
<path d="M4372 2843 l3 -218 218 -3 217 -2 0 220 0 220 -220 0 -220 0 2 -217z"/>
<path d="M5250 2840 l0 -220 218 2 217 3 3 218 2 217 -220 0 -220 0 0 -220z"/>
<path d="M3500 1970 l0 -220 220 0 220 0 0 220 0 220 -220 0 -220 0 0 -220z"/>
<path d="M4377 2183 c-4 -3 -7 -102 -7 -220 l0 -213 220 0 220 0 0 220 0 220
-213 0 c-118 0 -217 -3 -220 -7z"/>
<path d="M5250 1970 l0 -220 220 0 220 0 0 220 0 220 -220 0 -220 0 0 -220z"/>
<path d="M877 2183 c-4 -3 -7 -102 -7 -220 l0 -213 220 0 220 0 0 220 0 220
-213 0 c-118 0 -217 -3 -220 -7z"/>
<path d="M1750 1970 l0 -220 220 0 220 0 0 220 0 220 -220 0 -220 0 0 -220z"/>
<path d="M872 1093 l3 -218 218 -3 217 -2 0 220 0 220 -220 0 -220 0 2 -217z"/>
<path d="M1750 1090 l0 -220 218 2 217 3 3 218 2 217 -220 0 -220 0 0 -220z"/>
</g>
</svg>
