<svg width="305" height="64" viewBox="0 0 305 64" fill="none" xmlns="http://www.w3.org/2000/svg">
<path d="M27 18L58 2.5V62H45V54H37.5V62H2V40.5L27 32V18Z" fill="white"/>
<path fill-rule="evenodd" clip-rule="evenodd" d="M59.052 0.299652C59.3417 0.478829 59.5809 0.729035 59.7468 1.02654C59.9127 1.32405 59.9998 1.65901 60 1.99965V61.9997C60 62.5301 59.7893 63.0388 59.4142 63.4139C59.0391 63.7889 58.5304 63.9997 58 63.9997H46C45.4696 63.9997 44.9609 63.7889 44.5858 63.4139C44.2107 63.0388 44 62.5301 44 61.9997V55.9997H40V61.9997C40 62.5301 39.7893 63.0388 39.4142 63.4139C39.0391 63.7889 38.5304 63.9997 38 63.9997H2C1.46957 63.9997 0.960859 63.7889 0.585786 63.4139C0.210714 63.0388 0 62.5301 0 61.9997V39.9997C0.000318587 39.5801 0.132592 39.1712 0.3781 38.8309C0.623607 38.4907 0.969912 38.2362 1.368 38.1037L24 30.5597V17.9997C24 17.6285 24.1033 17.2647 24.2983 16.949C24.4932 16.6332 24.7722 16.3779 25.104 16.2117L57.104 0.211652C57.4092 0.0588752 57.7485 -0.0132436 58.0895 0.00215999C58.4304 0.0175635 58.7618 0.119977 59.052 0.299652ZM24 34.7757L4 41.4397V59.9997H24V34.7757ZM28 59.9997H36V53.9997C36 53.4692 36.2107 52.9605 36.5858 52.5854C36.9609 52.2104 37.4696 51.9997 38 51.9997H46C46.5304 51.9997 47.0391 52.2104 47.4142 52.5854C47.7893 52.9605 48 53.4692 48 53.9997V59.9997H56V5.23565L28 19.2357V59.9997Z" fill="black"/>
<path d="M8 44H12V48H8V44ZM16 44H20V48H16V44ZM8 52H12V56H8V52ZM16 52H20V56H16V52ZM32 36H36V40H32V36ZM40 36H44V40H40V36ZM32 44H36V48H32V44ZM40 44H44V48H40V44ZM48 36H52V40H48V36ZM48 44H52V48H48V44ZM32 28H36V32H32V28ZM40 28H44V32H40V28ZM48 28H52V32H48V28ZM32 20H36V24H32V20ZM40 20H44V24H40V20ZM48 20H52V24H48V20ZM48 12H52V16H48V12Z" fill="black"/>
<path d="M74.9062 52V17.875H85.4531C89.0156 17.875 91.7188 18.6719 93.5625 20.2656C95.4219 21.8438 96.3516 24.1641 96.3516 27.2266C96.3516 28.9609 95.9688 30.4531 95.2031 31.7031C94.4375 32.9531 93.3906 33.8672 92.0625 34.4453C93.5938 34.8828 94.7734 35.7656 95.6016 37.0938C96.4297 38.4062 96.8438 40.0312 96.8438 41.9688C96.8438 45.2812 95.9297 47.7812 94.1016 49.4688C92.2891 51.1562 89.6562 52 86.2031 52H74.9062ZM81.7969 37.1641V46.2812H86.2031C87.4375 46.2812 88.375 45.8984 89.0156 45.1328C89.6562 44.3672 89.9766 43.2812 89.9766 41.875C89.9766 38.8125 88.8672 37.2422 86.6484 37.1641H81.7969ZM81.7969 32.1484H85.3828C88.0859 32.1484 89.4375 30.75 89.4375 27.9531C89.4375 26.4062 89.125 25.2969 88.5 24.625C87.875 23.9531 86.8594 23.6172 85.4531 23.6172H81.7969V32.1484ZM111.773 52.4688C108.367 52.4688 105.711 51.4531 103.805 49.4219C101.898 47.3906 100.945 44.4844 100.945 40.7031V38.6875C100.945 34.6875 101.82 31.6016 103.57 29.4297C105.32 27.2578 107.828 26.1719 111.094 26.1719C114.281 26.1719 116.68 27.1953 118.289 29.2422C119.898 31.2734 120.719 34.2891 120.75 38.2891V41.5469H107.555C107.648 43.4219 108.062 44.7969 108.797 45.6719C109.531 46.5312 110.664 46.9609 112.195 46.9609C114.414 46.9609 116.266 46.2031 117.75 44.6875L120.352 48.6953C119.539 49.8203 118.359 50.7344 116.812 51.4375C115.266 52.125 113.586 52.4688 111.773 52.4688ZM107.602 36.9062H114.234V36.2969C114.203 34.7812 113.953 33.6328 113.484 32.8516C113.016 32.0703 112.203 31.6797 111.047 31.6797C109.891 31.6797 109.047 32.0938 108.516 32.9219C108 33.75 107.695 35.0781 107.602 36.9062ZM144.281 40.1406C144.281 44.25 143.625 47.3359 142.312 49.3984C141 51.4453 138.938 52.4688 136.125 52.4688C133.922 52.4688 132.156 51.4766 130.828 49.4922L130.617 52H124.5V16H131.133V28.7031C132.383 27.0156 134.031 26.1719 136.078 26.1719C138.891 26.1719 140.953 27.1953 142.266 29.2422C143.578 31.2734 144.25 34.2578 144.281 38.1953V40.1406ZM137.648 38.4766C137.648 35.8047 137.391 34.0156 136.875 33.1094C136.359 32.1875 135.461 31.7266 134.18 31.7266C132.789 31.7266 131.773 32.3594 131.133 33.625V45.1797C131.727 46.3672 132.758 46.9609 134.227 46.9609C135.492 46.9609 136.367 46.5469 136.852 45.7188C137.352 44.8906 137.617 43.2812 137.648 40.8906V38.4766ZM147.492 38.5C147.492 34.6562 148.398 31.6406 150.211 29.4531C152.023 27.2656 154.531 26.1719 157.734 26.1719C160.969 26.1719 163.492 27.2656 165.305 29.4531C167.117 31.6406 168.023 34.6719 168.023 38.5469V40.1641C168.023 44.0234 167.125 47.0391 165.328 49.2109C163.531 51.3828 161.016 52.4688 157.781 52.4688C154.531 52.4688 152 51.3828 150.188 49.2109C148.391 47.0234 147.492 43.9922 147.492 40.1172V38.5ZM154.148 40.1641C154.148 44.6953 155.359 46.9609 157.781 46.9609C160.016 46.9609 161.219 45.0703 161.391 41.2891L161.414 38.5C161.414 36.1875 161.094 34.4766 160.453 33.3672C159.812 32.2422 158.906 31.6797 157.734 31.6797C156.609 31.6797 155.727 32.2422 155.086 33.3672C154.461 34.4766 154.148 36.1875 154.148 38.5V40.1641ZM182.414 52.4688C179.008 52.4688 176.352 51.4531 174.445 49.4219C172.539 47.3906 171.586 44.4844 171.586 40.7031V38.6875C171.586 34.6875 172.461 31.6016 174.211 29.4297C175.961 27.2578 178.469 26.1719 181.734 26.1719C184.922 26.1719 187.32 27.1953 188.93 29.2422C190.539 31.2734 191.359 34.2891 191.391 38.2891V41.5469H178.195C178.289 43.4219 178.703 44.7969 179.438 45.6719C180.172 46.5312 181.305 46.9609 182.836 46.9609C185.055 46.9609 186.906 46.2031 188.391 44.6875L190.992 48.6953C190.18 49.8203 189 50.7344 187.453 51.4375C185.906 52.125 184.227 52.4688 182.414 52.4688ZM178.242 36.9062H184.875V36.2969C184.844 34.7812 184.594 33.6328 184.125 32.8516C183.656 32.0703 182.844 31.6797 181.688 31.6797C180.531 31.6797 179.688 32.0938 179.156 32.9219C178.641 33.75 178.336 35.0781 178.242 36.9062ZM207.656 33.0391L205.453 32.8516C203.641 32.8516 202.414 33.6484 201.773 35.2422V52H195.117V26.6406H201.375L201.562 29.3828C202.609 27.2422 204.055 26.1719 205.898 26.1719C206.648 26.1719 207.258 26.2734 207.727 26.4766L207.656 33.0391ZM240.609 40.8672L242.883 26.6406H249.234L243.984 52H238.477L234.891 37.3281L231.305 52H225.773L220.523 26.6406H226.898L229.148 40.8906L232.523 26.6406H237.234L240.609 40.8672ZM262.758 52.4688C259.352 52.4688 256.695 51.4531 254.789 49.4219C252.883 47.3906 251.93 44.4844 251.93 40.7031V38.6875C251.93 34.6875 252.805 31.6016 254.555 29.4297C256.305 27.2578 258.812 26.1719 262.078 26.1719C265.266 26.1719 267.664 27.1953 269.273 29.2422C270.883 31.2734 271.703 34.2891 271.734 38.2891V41.5469H258.539C258.633 43.4219 259.047 44.7969 259.781 45.6719C260.516 46.5312 261.648 46.9609 263.18 46.9609C265.398 46.9609 267.25 46.2031 268.734 44.6875L271.336 48.6953C270.523 49.8203 269.344 50.7344 267.797 51.4375C266.25 52.125 264.57 52.4688 262.758 52.4688ZM258.586 36.9062H265.219V36.2969C265.188 34.7812 264.938 33.6328 264.469 32.8516C264 32.0703 263.188 31.6797 262.031 31.6797C260.875 31.6797 260.031 32.0938 259.5 32.9219C258.984 33.75 258.68 35.0781 258.586 36.9062ZM295.266 40.1406C295.266 44.25 294.609 47.3359 293.297 49.3984C291.984 51.4453 289.922 52.4688 287.109 52.4688C284.906 52.4688 283.141 51.4766 281.812 49.4922L281.602 52H275.484V16H282.117V28.7031C283.367 27.0156 285.016 26.1719 287.062 26.1719C289.875 26.1719 291.938 27.1953 293.25 29.2422C294.562 31.2734 295.234 34.2578 295.266 38.1953V40.1406ZM288.633 38.4766C288.633 35.8047 288.375 34.0156 287.859 33.1094C287.344 32.1875 286.445 31.7266 285.164 31.7266C283.773 31.7266 282.758 32.3594 282.117 33.625V45.1797C282.711 46.3672 283.742 46.9609 285.211 46.9609C286.477 46.9609 287.352 46.5469 287.836 45.7188C288.336 44.8906 288.602 43.2812 288.633 40.8906V38.4766Z" fill="black"/>
</svg>
