<svg xmlns="http://www.w3.org/2000/svg" xmlns:xlink="http://www.w3.org/1999/xlink" xmlns:lucid="lucid" width="2281.43" height="2151.14"><g transform="translate(1000 -198.5)" lucid:page-tab-id="0_0"><path d="M-1806.87 0h3677.74v2581.67h-3677.74z" fill="#fff"/><path d="M80 646c0-3.3 2.7-6 6-6h148c3.3 0 6 2.7 6 6v108c0 3.3-2.7 6-6 6H86c-3.3 0-6-2.7-6-6z" stroke="#5e5e5e" stroke-width="3" fill="#fff"/><use xlink:href="#a" transform="matrix(1,0,0,1,92,652) translate(40.25308641975308 38.77777777777778)"/><use xlink:href="#b" transform="matrix(1,0,0,1,92,652) translate(22.444444444444443 65.44444444444446)"/><path d="M208 520c17.67 0 32 17.9 32 40s-14.33 40-32 40h-96c-17.67 0-32-17.9-32-40s14.33-40 32-40z" stroke="#5e5e5e" stroke-width="3" fill="#fff"/><use xlink:href="#c" transform="matrix(1,0,0,1,85,525) translate(31.23456790123457 39.65277777777778)"/><use xlink:href="#d" transform="matrix(1,0,0,1,85,525) translate(78.08641975308643 39.65277777777778)"/><path d="M160 602.5V620" stroke="#5e5e5e" stroke-width="2" fill="none"/><path d="M161 602.53h-2v-1.03h2" fill="#5e5e5e"/><path d="M160 635.26L155.36 621h9.28z" stroke="#5e5e5e" stroke-width="2" fill="#5e5e5e"/><path d="M160 762.5v70.97" stroke="#5e5e5e" stroke-width="2" fill="none"/><path d="M161 762.53h-2v-1.03h2" fill="#5e5e5e"/><path d="M160 848.74l-4.64-14.27h9.28z" stroke="#5e5e5e" stroke-width="2" fill="#5e5e5e"/><path d="M40 859.47c0-3.3 2.7-6 6-6h228c3.3 0 6 2.7 6 6v88c0 3.32-2.7 6-6 6H46c-3.3 0-6-2.68-6-6z" stroke="#5e5e5e" stroke-width="3" fill="#fff"/><use xlink:href="#e" transform="matrix(1,0,0,1,52,865.4742957130359) translate(11.91975308641976 41.52777777777778)"/><path d="M40 1066c0-3.3 2.7-6 6-6h228c3.3 0 6 2.7 6 6v88c0 3.3-2.7 6-6 6H46c-3.3 0-6-2.7-6-6z" stroke="#5e5e5e" stroke-width="3" fill="#fff"/><use xlink:href="#f" transform="matrix(1,0,0,1,52,1072) translate(43.27777777777777 41.52777777777778)"/><path d="M160 955.97V1040" stroke="#5e5e5e" stroke-width="2" fill="none"/><path d="M161 956h-2v-1.03h2" fill="#5e5e5e"/><path d="M160 1055.26l-4.64-14.26h9.28z" stroke="#5e5e5e" stroke-width="2" fill="#5e5e5e"/><path d="M40 1270.14c0-3.3 2.7-6 6-6h228c3.3 0 6 2.7 6 6v88c0 3.3-2.7 6-6 6H46c-3.3 0-6-2.7-6-6z" stroke="#5e5e5e" stroke-width="3" fill="#fff"/><use xlink:href="#g" transform="matrix(1,0,0,1,52,1276.1393129129256) translate(21.703703703703695 41.52777777777778)"/><path d="M160 1162.5v81.64" stroke="#5e5e5e" stroke-width="2" fill="none"/><path d="M161 1162.53h-2v-1.03h2" fill="#5e5e5e"/><path d="M160 1259.4l-4.64-14.26h9.28z" stroke="#5e5e5e" stroke-width="2" fill="#5e5e5e"/><path d="M40 1535.6c0-3.32 2.7-6 6-6h228c3.3 0 6 2.68 6 6v88c0 3.3-2.7 6-6 6H46c-3.3 0-6-2.7-6-6z" stroke="#5e5e5e" stroke-width="3" fill="#fff"/><use xlink:href="#h" transform="matrix(1,0,0,1,52,1541.594636920385) translate(45.716049382716044 41.52777777777778)"/><path d="M160 1366.64v142.95" stroke="#5e5e5e" stroke-width="2" fill="none"/><path d="M161 1366.66h-2v-1.02h2" fill="#5e5e5e"/><path d="M160 1524.86l-4.64-14.27h9.28z" stroke="#5e5e5e" stroke-width="2" fill="#5e5e5e"/><path d="M40 1805.1c0-3.3 2.7-6 6-6h228c3.3 0 6 2.7 6 6v88c0 3.32-2.7 6-6 6H46c-3.3 0-6-2.68-6-6z" stroke="#5e5e5e" stroke-width="3" fill="#fff"/><use xlink:href="#i" transform="matrix(1,0,0,1,52,1811.1111111111109) translate(27.259259259259252 41.52777777777778)"/><path d="M40 1965.1c0-3.3 2.7-6 6-6h228c3.3 0 6 2.7 6 6v88c0 3.32-2.7 6-6 6H46c-3.3 0-6-2.68-6-6z" stroke="#5e5e5e" stroke-width="3" fill="#fff"/><use xlink:href="#j" transform="matrix(1,0,0,1,52,1971.1111111111109) translate(5.6851851851851904 41.52777777777778)"/><path d="M160 1901.6v37.5" stroke="#5e5e5e" stroke-width="2" fill="none"/><path d="M161 1901.64h-2v-1.03h2" fill="#5e5e5e"/><path d="M160 1954.38l-4.64-14.27h9.28z" stroke="#5e5e5e" stroke-width="2" fill="#5e5e5e"/><path d="M160 2061.6v37.5" stroke="#5e5e5e" stroke-width="2" fill="none"/><path d="M161 2061.64h-2v-1.03h2" fill="#5e5e5e"/><path d="M160 2114.38l-4.64-14.27h9.28z" stroke="#5e5e5e" stroke-width="2" fill="#5e5e5e"/><path d="M80 2125.1c0-3.3 2.7-6 6-6h148c3.3 0 6 2.7 6 6v108c0 3.32-2.7 6-6 6H86c-3.3 0-6-2.68-6-6z" stroke="#5e5e5e" stroke-width="3" fill="#fff"/><use xlink:href="#k" transform="matrix(1,0,0,1,92,2131.1111111111113) translate(26.73456790123457 53.77777777777778)"/><use xlink:href="#l" transform="matrix(1,0,0,1,92,2131.1111111111113) translate(61.24074074074074 53.77777777777778)"/><path d="M282.5 2009.1h33c3.3 0 6-2.68 6-6v-132.66c0-3.3-2.7-6-6-6H300" stroke="#0c7cba" stroke-width="2" fill="none"/><path d="M282.53 2010.1h-1.03v-2h1.03" fill="#0c7cba"/><path d="M284.74 1864.44l14.26-4.63v9.28z" stroke="#0c7cba" stroke-width="2" fill="#0c7cba"/><path d="M282.5 1579.6h33c3.3 0 6-2.7 6-6V1331.9c0-3.32-2.7-6-6-6H300" stroke="#3aa6dd" stroke-width="2" fill="none"/><path d="M282.53 1580.6h-1.03v-2h1.03" fill="#3aa6dd"/><path d="M284.74 1325.92l14.26-4.64v9.27z" stroke="#3aa6dd" stroke-width="2" fill="#3aa6dd"/><path d="M282.5 1314.14h33c3.3 0 6-2.7 6-6V1129.1c0-3.3-2.7-6-6-6H300" stroke="#3aa6dd" stroke-width="2" fill="none"/><path d="M282.53 1315.14h-1.03v-2h1.03" fill="#3aa6dd"/><path d="M284.74 1123.1l14.26-4.62v9.27z" stroke="#3aa6dd" stroke-width="2" fill="#3aa6dd"/><path d="M282.5 1110h33c3.3 0 6-2.7 6-6V929.25c0-3.3-2.7-6-6-6H300" stroke="#3aa6dd" stroke-width="2" fill="none"/><path d="M282.53 1111h-1.03v-2h1.03" fill="#3aa6dd"/><path d="M284.74 923.25l14.26-4.63v9.27z" stroke="#3aa6dd" stroke-width="2" fill="#3aa6dd"/><path d="M282.5 903.47H344c3.3 0 6-2.68 6-6V856c0-3.3 2.7-6 6-6h44" stroke="#0c7cba" stroke-width="2" fill="none"/><path d="M282.53 904.47h-1.03v-2h1.03" fill="#0c7cba"/><path d="M415.26 850L401 854.64v-9.28z" stroke="#0c7cba" stroke-width="2" fill="#0c7cba"/><path d="M420 796c0-3.3 2.7-6 6-6h148c3.3 0 6 2.7 6 6v108c0 3.3-2.7 6-6 6H426c-3.3 0-6-2.7-6-6z" stroke="#5e5e5e" stroke-width="3" fill="#fff"/><use xlink:href="#m" transform="matrix(1,0,0,1,432,802) translate(7.567901234567891 53.77777777777778)"/><path d="M582.5 850h100.93c3.32 0 6-2.7 6-6v-63.73" stroke="#0c7cba" stroke-width="2" fill="none"/><path d="M582.53 851h-1.03v-2h1.03" fill="#0c7cba"/><path d="M689.43 765l4.64 14.27h-9.27z" stroke="#0c7cba" stroke-width="2" fill="#0c7cba"/><path d="M609.43 646.26c0-3.3 2.7-6 6-6h148c3.32 0 6 2.7 6 6v108c0 3.32-2.68 6-6 6h-148c-3.3 0-6-2.68-6-6z" stroke="#5e5e5e" stroke-width="3" fill="#fff"/><use xlink:href="#n" transform="matrix(1,0,0,1,621.4330708661416,652.2639280969508) translate(50.74691358024691 53.77777777777778)"/><path d="M606.93 700.26H506c-3.3 0-6 2.7-6 6V770" stroke="#0c7cba" stroke-width="2" fill="none"/><path d="M607.93 701.26h-1.02v-2h1.03" fill="#0c7cba"/><path d="M500 785.26L495.36 771h9.28z" stroke="#0c7cba" stroke-width="2" fill="#0c7cba"/><path d="M476.24 787.5v-66.83c0-3.32-2.68-6-6-6H260" stroke="#0c7cba" stroke-width="2" fill="none"/><path d="M477.24 788.5h-2v-1.03h2" fill="#0c7cba"/><path d="M244.74 714.67l14.26-4.64v9.27z" stroke="#0c7cba" stroke-width="2" fill="#0c7cba"/><path d="M242.5 700h33c3.3 0 6-2.7 6-6V565.97c0-3.3-2.7-6-6-6H260" stroke="#0c7cba" stroke-width="2" fill="none"/><path d="M242.53 701h-1.03v-2h1.03" fill="#0c7cba"/><path d="M244.74 559.97l14.26-4.63v9.27z" stroke="#0c7cba" stroke-width="2" fill="#0c7cba"/><path d="M242.5 2179.1H300" stroke="#3aa6dd" stroke-width="2" fill="none"/><path d="M242.53 2180.1h-1.03v-2h1.03" fill="#3aa6dd"/><path d="M315.26 2179.1l-14.26 4.65v-9.27z" stroke="#3aa6dd" stroke-width="2" fill="#3aa6dd"/><path d="M320 2125.1c0-3.3 2.7-6 6-6h148c3.3 0 6 2.7 6 6v108c0 3.32-2.7 6-6 6H326c-3.3 0-6-2.68-6-6z" stroke="#5e5e5e" stroke-width="3" fill="#fff"/><use xlink:href="#o" transform="matrix(1,0,0,1,332.00000000000006,2131.1111111111113) translate(0.22222222222222854 53.77777777777778)"/><use xlink:href="#p" transform="matrix(1,0,0,1,332.00000000000006,2131.1111111111113) translate(82.75308641975309 53.77777777777778)"/><path d="M400 2116.6v-82.16c0-3.3-2.7-6-6-6h-94" stroke="#0c7cba" stroke-width="2" fill="none"/><path d="M401 2117.6h-2v-1h2" fill="#0c7cba"/><path d="M284.74 2028.44l14.26-4.63v9.28z" stroke="#0c7cba" stroke-width="2" fill="#0c7cba"/><path d="M80 226c0-3.3 2.7-6 6-6h148c3.3 0 6 2.7 6 6v108c0 3.3-2.7 6-6 6H86c-3.3 0-6-2.7-6-6z" stroke="#5e5e5e" stroke-width="3" fill="#fff"/><use xlink:href="#q" transform="matrix(1,0,0,1,92,232) translate(43.370370370370374 53.77777777777778)"/><path d="M160 342.5v2.95m0 3.94v5.9m0 3.93v5.9m0 3.95v5.9m0 3.94v5.9m0 3.95v5.9m0 3.94v5.9m0 3.95v5.9m0 3.95v5.9m0 3.94v5.9m0 3.94v5.9m0 3.95v5.9m0 3.94v5.9m0 3.94v5.92m0 3.94v5.9m0 3.94v5.9m0 3.94V500" stroke="#5e5e5e" stroke-width="2" fill="none"/><path d="M161 342.53h-2v-1.03h2" fill="#5e5e5e"/><path d="M160 515.26L155.36 501h9.28z" stroke="#5e5e5e" stroke-width="2" fill="#5e5e5e"/><path d="M160 1632.1v11.12c0 3.3 2.7 6 6 6h213.62" stroke="#5e5e5e" stroke-width="2" fill="none"/><path d="M161 1632.12h-2v-1.03h2" fill="#5e5e5e"/><path d="M379.93 1664.1l-4.93-14.16 9.27-.2z" stroke="#5e5e5e" stroke-width="2" fill="#5e5e5e"/><path d="M300 1674.84c0-3.3 2.7-6 6-6h148c3.3 0 6 2.7 6 6v108c0 3.3-2.7 6-6 6H306c-3.3 0-6-2.7-6-6z" stroke="#5e5e5e" stroke-width="3" fill="#f5b5c8"/><use xlink:href="#r" transform="matrix(1,0,0,1,312,1680.841019247594) translate(9.481481481481481 38.77777777777778)"/><use xlink:href="#s" transform="matrix(1,0,0,1,312,1680.841019247594) translate(55.03703703703704 38.77777777777778)"/><use xlink:href="#t" transform="matrix(1,0,0,1,312,1680.841019247594) translate(79.72839506172839 38.77777777777778)"/><use xlink:href="#u" transform="matrix(1,0,0,1,312,1680.841019247594) translate(35.345679012345684 65.44444444444446)"/><path d="M297.5 1728.84H126.44c-3.3 0-6-2.7-6-6v-73.24" stroke="#5e5e5e" stroke-width="2" fill="none"/><path d="M298.5 1729.84h-1.03v-2h1.03" fill="#5e5e5e"/><path d="M120.44 1634.33l4.64 14.27h-9.27z" stroke="#5e5e5e" stroke-width="2" fill="#5e5e5e"/><path d="M80.44 1632.1v147.01" stroke="#5e5e5e" stroke-width="2" fill="none"/><path d="M81.44 1632.12h-2v-1.03h2" fill="#5e5e5e"/><path d="M80.44 1794.37l-4.63-14.26h9.28z" stroke="#5e5e5e" stroke-width="2" fill="#5e5e5e"/><path d="M282.5 1849.1H374c3.3 0 6-2.68 6-6v-34.26" stroke="#0c7cba" stroke-width="2" fill="none"/><path d="M282.53 1850.1h-1.03v-2h1.03" fill="#0c7cba"/><path d="M380 1793.58l4.64 14.26h-9.28z" stroke="#0c7cba" stroke-width="2" fill="#0c7cba"/><path d="M423.1 1666.34v-66.3c0-3.3-2.68-6-6-6H300" stroke="#3aa6dd" stroke-width="2" fill="none"/><path d="M424.1 1667.34h-2v-1.02h2" fill="#3aa6dd"/><path d="M284.74 1594.04l14.26-4.64v9.27z" stroke="#3aa6dd" stroke-width="2" fill="#3aa6dd"/><path d="M869.43 567.58h392v265.37h-392z" fill="url(#v)"/><path d="M868.43 700.26h-3.13m-4.17 0h-6.27m-4.17 0h-6.27m-4.18 0H834m-4.2 0h-6.25m-4.17 0h-6.27m-4.16 0h-6.26m-4.18 0h-6.26m-4.18 0h-3.13" stroke="#5e5e5e" stroke-width="2" fill="none"/><path d="M869.43 701.26h-1.02v-2h1.03" fill="#5e5e5e"/><path d="M772.35 700.26l7.07-7.07 7.93 7.06-7.93 7.07z" stroke="#5e5e5e" stroke-width="2" fill="#fff"/><path d="M540 2028.58h597.63v301.06H540z" fill="url(#w)"/><path d="M539 2179.1h-3.26m-4.35 0h-6.54m-4.35 0H514m-4.36 0h-6.53m-4.34 0h-3.26" stroke="#5e5e5e" stroke-width="2" fill="none"/><path d="M540 2180.1h-1.03v-2H540" fill="#5e5e5e"/><path d="M482.9 2179.1l7.1-7.06 7.9 7.07-7.9 7.08z" stroke="#5e5e5e" stroke-width="2" fill="#fff"/><path d="M22.33 449.5h3.24m4.32 0h6.46m4.32 0h3.24l2.7.73m2.57 2.57l.72 2.7v2.96m0 3.94v5.9m0 3.95v5.9m0 3.95v5.9m0 3.95v5.9m0 3.95v5.9m0 3.95v5.9m0 3.95v5.9m0 3.95v5.9m0 3.95v5.9m0 3.95V554l.73 2.7m2.57 2.57l2.7.73h2.57m3.42 0h2.58" stroke="#5e5e5e" stroke-width="2" fill="none"/><path d="M22.36 450.5h-1.03v-2h1.03" fill="#5e5e5e"/><path d="M77.08 560L70 567.07 62.1 560l7.93-7.07z" stroke="#5e5e5e" stroke-width="2" fill="#fff"/><path d="M-580 280H21.33v339H-580z" fill="url(#x)"/><path d="M-708.7 627.84H0v144.84h-708.7z" fill="url(#y)"/><path d="M1 700.26h2.86m3.8 0h5.73m3.8 0h5.72m3.8 0h5.73m3.8 0h2.87l.1-.03.03-.1.04-.1.08-.03h2.5m3.36 0h5.03m3.35 0h5.02m3.35 0h2.5" stroke="#5e5e5e" stroke-width="2" fill="none"/><path d="M1.03 701.26H0v-2h1.03" fill="#5e5e5e"/><path d="M77.1 700l-7.1 7.07-7.9-7.07 7.9-7.07z" stroke="#5e5e5e" stroke-width="2" fill="#fff"/><path d="M-652.47 820h596.25v166.95h-596.25z" fill="url(#z)"/><path d="M-55.22 903.47h3m3.97 0h5.98m4 0h5.97m3.98 0h5.98m4 0h5.97m3.98 0h6m3.98 0h5.98m4 0h5.96m4 0h2.98" stroke="#5e5e5e" stroke-width="2" fill="none"/><path d="M-55.2 904.47h-1.02v-2h1.02" fill="#5e5e5e"/><path d="M37.1 903.47l-7.1 7.08-7.9-7.08 7.9-7.07z" stroke="#5e5e5e" stroke-width="2" fill="#fff"/><path d="M-913.58 1049.86h857.36v118.42h-857.36z" fill="url(#A)"/><path d="M-55.22 1109.07h2.75m3.67 0h5.5m3.68 0h5.5m3.68 0h5.5m3.68 0h5.5m3.68 0h2.75l.33.13.14.33.14.33.33.14h3.3m4.38 0h6.58m4.4 0h6.56m4.4 0h3.28" stroke="#5e5e5e" stroke-width="2" fill="none"/><path d="M-55.2 1110.07h-1.02v-2h1.02" fill="#5e5e5e"/><path d="M37.1 1110l-7.1 7.07-7.9-7.07 7.9-7.07z" stroke="#5e5e5e" stroke-width="2" fill="#fff"/><path d="M-760 1203.67h650.1v220.94H-760z" fill="url(#B)"/><path d="M-108.9 1314.14h3.08m4.1 0h6.17m4.1 0h6.16m4.1 0h6.17m4.1 0h6.16m4.1 0h6.16m4.1 0h6.15m4.1 0h6.16m4.12 0h6.15m4.1 0h6.16m4.1 0h6.17m4.1 0h6.16m4.1 0h6.16m4.1 0h3.08" stroke="#5e5e5e" stroke-width="2" fill="none"/><path d="M-108.87 1315.14h-1.02v-2h1.03" fill="#5e5e5e"/><path d="M37.1 1314.14l-7.1 7.07-7.9-7.06 7.9-7.07z" stroke="#5e5e5e" stroke-width="2" fill="#fff"/><path d="M-840 1460h771.58v239.2H-840z" fill="url(#C)"/><path d="M-67.42 1579.6h3.06m4.1 0h6.12m4.08 0h6.13m4.08 0h6.13m4.1 0h6.12m4.08 0h6.13m4.1 0h6.12m4.1 0h6.12m4.08 0h6.13m4.1 0h3.05" stroke="#5e5e5e" stroke-width="2" fill="none"/><path d="M-67.4 1580.6h-1.02v-2h1.02" fill="#5e5e5e"/><path d="M37.1 1579.6l-7.1 7.07-7.9-7.08 7.9-7.08z" stroke="#5e5e5e" stroke-width="2" fill="#fff"/><path d="M540 1660h669.58v137.68H540z" fill="url(#D)"/><path d="M539 1728.84h-3.17m-4.24 0h-6.36m-4.23 0h-6.34m-4.23 0h-6.36m-4.23 0h-6.35m-4.24 0h-6.35m-4.22 0h-3.18" stroke="#5e5e5e" stroke-width="2" fill="none"/><path d="M540 1729.84h-1.03v-2H540" fill="#5e5e5e"/><path d="M462.9 1728.84l7.1-7.07 7.9 7.07-7.9 7.07z" stroke="#5e5e5e" stroke-width="2" fill="#fff"/><path d="M-980 1777.73h967.88v142.76H-980z" fill="url(#E)"/><path d="M-11.12 1849.1h2.67m3.56 0H.47m3.56 0h5.34m3.56 0h5.35m3.56 0h2.67" stroke="#5e5e5e" stroke-width="2" fill="none"/><path d="M-11.1 1850.1h-1.02v-2h1.03" fill="#5e5e5e"/><path d="M37.1 1849.1l-7.1 7.08-7.9-7.07 7.9-7.06z" stroke="#5e5e5e" stroke-width="2" fill="#fff"/><path d="M-620 1959.1h584.97v291.92H-620z" fill="url(#F)"/><path d="M-34.03 2105.07h2.97m3.97 0h5.97m3.96 0h5.96m3.96 0h2.97l2.7-.73m2.57-2.57l.73-2.7v-3.15m0-4.2v-6.3m0-4.2v-6.3m0-4.2v-6.28m0-4.2v-6.3m0-4.2v-6.3m0-4.2v-6.3m0-4.2v-6.28m0-4.2v-3.15l.73-2.7m2.58-2.56l2.7-.73h2.5m3.36 0h5.03m3.36 0h2.5" stroke="#5e5e5e" stroke-width="2" fill="none"/><path d="M-34 2106.07h-1.03v-2H-34" fill="#5e5e5e"/><path d="M37.1 2009.1l-7.1 7.08-7.9-7.07 7.9-7.06z" stroke="#5e5e5e" stroke-width="2" fill="#fff"/><defs><path fill="#333" d="M30 0v-248h187v28H63v79h144v27H63v87h162V0H30" id="G"/><path fill="#333" d="M117-194c89-4 53 116 60 194h-32v-121c0-31-8-49-39-48C34-167 62-67 57 0H25l-1-190h30c1 10-1 24 2 32 11-22 29-35 61-36" id="H"/><path fill="#333" d="M59-47c-2 24 18 29 38 22v24C64 9 27 4 27-40v-127H5v-23h24l9-43h21v43h35v23H59v120" id="I"/><path fill="#333" d="M24-231v-30h32v30H24zM24 0v-190h32V0H24" id="J"/><path fill="#333" d="M179-190L93 31C79 59 56 82 12 73V49c39 6 53-20 64-50L1-190h34L92-34l54-156h33" id="K"/><g id="a"><use transform="matrix(0.06172839506172839,0,0,0.06172839506172839,0,0)" xlink:href="#G"/><use transform="matrix(0.06172839506172839,0,0,0.06172839506172839,14.814814814814813,0)" xlink:href="#H"/><use transform="matrix(0.06172839506172839,0,0,0.06172839506172839,27.160493827160494,0)" xlink:href="#I"/><use transform="matrix(0.06172839506172839,0,0,0.06172839506172839,33.333333333333336,0)" xlink:href="#J"/><use transform="matrix(0.06172839506172839,0,0,0.06172839506172839,38.20987654320988,0)" xlink:href="#I"/><use transform="matrix(0.06172839506172839,0,0,0.06172839506172839,44.38271604938272,0)" xlink:href="#K"/></g><path fill="#333" d="M96-169c-40 0-48 33-48 73s9 75 48 75c24 0 41-14 43-38l32 2c-6 37-31 61-74 61-59 0-76-41-82-99-10-93 101-131 147-64 4 7 5 14 7 22l-32 3c-4-21-16-35-41-35" id="L"/><path fill="#333" d="M100-194c62-1 85 37 85 99 1 63-27 99-86 99S16-35 15-95c0-66 28-99 85-99zM99-20c44 1 53-31 53-75 0-43-8-75-51-75s-53 32-53 75 10 74 51 75" id="M"/><path fill="#333" d="M114-163C36-179 61-72 57 0H25l-1-190h30c1 12-1 29 2 39 6-27 23-49 58-41v29" id="N"/><path fill="#333" d="M24 0v-261h32V0H24" id="O"/><path fill="#333" d="M100-194c63 0 86 42 84 106H49c0 40 14 67 53 68 26 1 43-12 49-29l28 8c-11 28-37 45-77 45C44 4 14-33 15-96c1-61 26-98 85-98zm52 81c6-60-76-77-97-28-3 7-6 17-6 28h103" id="P"/><g id="b"><use transform="matrix(0.06172839506172839,0,0,0.06172839506172839,0,0)" xlink:href="#L"/><use transform="matrix(0.06172839506172839,0,0,0.06172839506172839,11.11111111111111,0)" xlink:href="#M"/><use transform="matrix(0.06172839506172839,0,0,0.06172839506172839,23.45679012345679,0)" xlink:href="#H"/><use transform="matrix(0.06172839506172839,0,0,0.06172839506172839,35.80246913580247,0)" xlink:href="#I"/><use transform="matrix(0.06172839506172839,0,0,0.06172839506172839,41.97530864197531,0)" xlink:href="#N"/><use transform="matrix(0.06172839506172839,0,0,0.06172839506172839,49.32098765432099,0)" xlink:href="#M"/><use transform="matrix(0.06172839506172839,0,0,0.06172839506172839,61.666666666666664,0)" xlink:href="#O"/><use transform="matrix(0.06172839506172839,0,0,0.06172839506172839,66.5432098765432,0)" xlink:href="#O"/><use transform="matrix(0.06172839506172839,0,0,0.06172839506172839,71.41975308641975,0)" xlink:href="#P"/><use transform="matrix(0.06172839506172839,0,0,0.06172839506172839,83.76543209876543,0)" xlink:href="#N"/></g><path fill="#333" d="M197 0v-115H63V0H30v-248h33v105h134v-105h34V0h-34" id="Q"/><path fill="#333" d="M115-194c55 1 70 41 70 98S169 2 115 4C84 4 66-9 55-30l1 105H24l-1-265h31l2 30c10-21 28-34 59-34zm-8 174c40 0 45-34 45-75s-6-73-45-74c-42 0-51 32-51 76 0 43 10 73 51 73" id="R"/><g id="c"><use transform="matrix(0.06172839506172839,0,0,0.06172839506172839,0,0)" xlink:href="#Q"/><use transform="matrix(0.06172839506172839,0,0,0.06172839506172839,15.987654320987653,0)" xlink:href="#I"/><use transform="matrix(0.06172839506172839,0,0,0.06172839506172839,22.160493827160494,0)" xlink:href="#I"/><use transform="matrix(0.06172839506172839,0,0,0.06172839506172839,28.333333333333332,0)" xlink:href="#R"/></g><path fill="#333" d="M143 0L79-87 56-68V0H24v-261h32v163l83-92h37l-77 82L181 0h-38" id="S"/><path fill="#333" d="M141-36C126-15 110 5 73 4 37 3 15-17 15-53c-1-64 63-63 125-63 3-35-9-54-41-54-24 1-41 7-42 31l-33-3c5-37 33-52 76-52 45 0 72 20 72 64v82c-1 20 7 32 28 27v20c-31 9-61-2-59-35zM48-53c0 20 12 33 32 33 41-3 63-29 60-74-43 2-92-5-92 41" id="T"/><path fill="#333" d="M85-194c31 0 48 13 60 33l-1-100h32l1 261h-30c-2-10 0-23-3-31C134-8 116 4 85 4 32 4 16-35 15-94c0-66 23-100 70-100zm9 24c-40 0-46 34-46 75 0 40 6 74 45 74 42 0 51-32 51-76 0-42-9-74-50-73" id="U"/><g id="d"><use transform="matrix(0.06172839506172839,0,0,0.06172839506172839,0,0)" xlink:href="#S"/><use transform="matrix(0.06172839506172839,0,0,0.06172839506172839,11.11111111111111,0)" xlink:href="#T"/><use transform="matrix(0.06172839506172839,0,0,0.06172839506172839,23.45679012345679,0)" xlink:href="#O"/><use transform="matrix(0.06172839506172839,0,0,0.06172839506172839,28.333333333333336,0)" xlink:href="#U"/></g><path fill="#333" d="M212-179c-10-28-35-45-73-45-59 0-87 40-87 99 0 60 29 101 89 101 43 0 62-24 78-52l27 14C228-24 195 4 139 4 59 4 22-46 18-125c-6-104 99-153 187-111 19 9 31 26 39 46" id="V"/><path fill="#333" d="M84 4C-5 8 30-112 23-190h32v120c0 31 7 50 39 49 72-2 45-101 50-169h31l1 190h-30c-1-10 1-25-2-33-11 22-28 36-60 37" id="W"/><path fill="#333" d="M115-194c53 0 69 39 70 98 0 66-23 100-70 100C84 3 66-7 56-30L54 0H23l1-261h32v101c10-23 28-34 59-34zm-8 174c40 0 45-34 45-75 0-40-5-75-45-74-42 0-51 32-51 76 0 43 10 73 51 73" id="X"/><path fill="#333" d="M135-143c-3-34-86-38-87 0 15 53 115 12 119 90S17 21 10-45l28-5c4 36 97 45 98 0-10-56-113-15-118-90-4-57 82-63 122-42 12 7 21 19 24 35" id="Y"/><g id="e"><use transform="matrix(0.06172839506172839,0,0,0.06172839506172839,0,0)" xlink:href="#V"/><use transform="matrix(0.06172839506172839,0,0,0.06172839506172839,15.987654320987653,0)" xlink:href="#N"/><use transform="matrix(0.06172839506172839,0,0,0.06172839506172839,23.333333333333332,0)" xlink:href="#W"/><use transform="matrix(0.06172839506172839,0,0,0.06172839506172839,35.67901234567901,0)" xlink:href="#U"/><use transform="matrix(0.06172839506172839,0,0,0.06172839506172839,48.02469135802469,0)" xlink:href="#V"/><use transform="matrix(0.06172839506172839,0,0,0.06172839506172839,64.01234567901234,0)" xlink:href="#M"/><use transform="matrix(0.06172839506172839,0,0,0.06172839506172839,76.35802469135803,0)" xlink:href="#H"/><use transform="matrix(0.06172839506172839,0,0,0.06172839506172839,88.70370370370371,0)" xlink:href="#I"/><use transform="matrix(0.06172839506172839,0,0,0.06172839506172839,94.87654320987654,0)" xlink:href="#N"/><use transform="matrix(0.06172839506172839,0,0,0.06172839506172839,102.22222222222223,0)" xlink:href="#M"/><use transform="matrix(0.06172839506172839,0,0,0.06172839506172839,114.56790123456791,0)" xlink:href="#O"/><use transform="matrix(0.06172839506172839,0,0,0.06172839506172839,119.44444444444446,0)" xlink:href="#O"/><use transform="matrix(0.06172839506172839,0,0,0.06172839506172839,124.320987654321,0)" xlink:href="#P"/><use transform="matrix(0.06172839506172839,0,0,0.06172839506172839,136.66666666666669,0)" xlink:href="#N"/><use transform="matrix(0.06172839506172839,0,0,0.06172839506172839,144.01234567901236,0)" xlink:href="#X"/><use transform="matrix(0.06172839506172839,0,0,0.06172839506172839,156.35802469135803,0)" xlink:href="#T"/><use transform="matrix(0.06172839506172839,0,0,0.06172839506172839,168.7037037037037,0)" xlink:href="#Y"/><use transform="matrix(0.06172839506172839,0,0,0.06172839506172839,179.8148148148148,0)" xlink:href="#P"/></g><path fill="#333" d="M185-189c-5-48-123-54-124 2 14 75 158 14 163 119 3 78-121 87-175 55-17-10-28-26-33-46l33-7c5 56 141 63 141-1 0-78-155-14-162-118-5-82 145-84 179-34 5 7 8 16 11 25" id="Z"/><path fill="#333" d="M108 0H70L1-190h34L89-25l56-165h34" id="aa"/><g id="f"><use transform="matrix(0.06172839506172839,0,0,0.06172839506172839,0,0)" xlink:href="#G"/><use transform="matrix(0.06172839506172839,0,0,0.06172839506172839,14.814814814814813,0)" xlink:href="#H"/><use transform="matrix(0.06172839506172839,0,0,0.06172839506172839,27.160493827160494,0)" xlink:href="#I"/><use transform="matrix(0.06172839506172839,0,0,0.06172839506172839,33.333333333333336,0)" xlink:href="#J"/><use transform="matrix(0.06172839506172839,0,0,0.06172839506172839,38.20987654320988,0)" xlink:href="#I"/><use transform="matrix(0.06172839506172839,0,0,0.06172839506172839,44.38271604938272,0)" xlink:href="#K"/><use transform="matrix(0.06172839506172839,0,0,0.06172839506172839,55.49382716049384,0)" xlink:href="#Z"/><use transform="matrix(0.06172839506172839,0,0,0.06172839506172839,70.30864197530865,0)" xlink:href="#P"/><use transform="matrix(0.06172839506172839,0,0,0.06172839506172839,82.65432098765433,0)" xlink:href="#N"/><use transform="matrix(0.06172839506172839,0,0,0.06172839506172839,90.00000000000001,0)" xlink:href="#aa"/><use transform="matrix(0.06172839506172839,0,0,0.06172839506172839,101.11111111111113,0)" xlink:href="#J"/><use transform="matrix(0.06172839506172839,0,0,0.06172839506172839,105.98765432098767,0)" xlink:href="#L"/><use transform="matrix(0.06172839506172839,0,0,0.06172839506172839,117.09876543209879,0)" xlink:href="#P"/></g><path fill="#333" d="M160-131c35 5 61 23 61 61C221 17 115-2 30 0v-248c76 3 177-17 177 60 0 33-19 50-47 57zm-97-11c50-1 110 9 110-42 0-47-63-36-110-37v79zm0 115c55-2 124 14 124-45 0-56-70-42-124-44v89" id="ab"/><g id="g"><use transform="matrix(0.06172839506172839,0,0,0.06172839506172839,0,0)" xlink:href="#V"/><use transform="matrix(0.06172839506172839,0,0,0.06172839506172839,15.987654320987653,0)" xlink:href="#N"/><use transform="matrix(0.06172839506172839,0,0,0.06172839506172839,23.333333333333332,0)" xlink:href="#W"/><use transform="matrix(0.06172839506172839,0,0,0.06172839506172839,35.67901234567901,0)" xlink:href="#U"/><use transform="matrix(0.06172839506172839,0,0,0.06172839506172839,48.02469135802469,0)" xlink:href="#Z"/><use transform="matrix(0.06172839506172839,0,0,0.06172839506172839,62.839506172839506,0)" xlink:href="#P"/><use transform="matrix(0.06172839506172839,0,0,0.06172839506172839,75.18518518518519,0)" xlink:href="#N"/><use transform="matrix(0.06172839506172839,0,0,0.06172839506172839,82.53086419753087,0)" xlink:href="#aa"/><use transform="matrix(0.06172839506172839,0,0,0.06172839506172839,93.64197530864199,0)" xlink:href="#J"/><use transform="matrix(0.06172839506172839,0,0,0.06172839506172839,98.51851851851853,0)" xlink:href="#L"/><use transform="matrix(0.06172839506172839,0,0,0.06172839506172839,109.62962962962965,0)" xlink:href="#P"/><use transform="matrix(0.06172839506172839,0,0,0.06172839506172839,121.97530864197533,0)" xlink:href="#ab"/><use transform="matrix(0.06172839506172839,0,0,0.06172839506172839,136.79012345679016,0)" xlink:href="#T"/><use transform="matrix(0.06172839506172839,0,0,0.06172839506172839,149.13580246913583,0)" xlink:href="#Y"/><use transform="matrix(0.06172839506172839,0,0,0.06172839506172839,160.24691358024694,0)" xlink:href="#P"/></g><g id="h"><use transform="matrix(0.06172839506172839,0,0,0.06172839506172839,0,0)" xlink:href="#Z"/><use transform="matrix(0.06172839506172839,0,0,0.06172839506172839,14.814814814814813,0)" xlink:href="#P"/><use transform="matrix(0.06172839506172839,0,0,0.06172839506172839,27.160493827160494,0)" xlink:href="#N"/><use transform="matrix(0.06172839506172839,0,0,0.06172839506172839,34.50617283950617,0)" xlink:href="#aa"/><use transform="matrix(0.06172839506172839,0,0,0.06172839506172839,45.61728395061728,0)" xlink:href="#J"/><use transform="matrix(0.06172839506172839,0,0,0.06172839506172839,50.49382716049382,0)" xlink:href="#L"/><use transform="matrix(0.06172839506172839,0,0,0.06172839506172839,61.60493827160494,0)" xlink:href="#P"/><use transform="matrix(0.06172839506172839,0,0,0.06172839506172839,73.95061728395062,0)" xlink:href="#ab"/><use transform="matrix(0.06172839506172839,0,0,0.06172839506172839,88.76543209876543,0)" xlink:href="#T"/><use transform="matrix(0.06172839506172839,0,0,0.06172839506172839,101.11111111111111,0)" xlink:href="#Y"/><use transform="matrix(0.06172839506172839,0,0,0.06172839506172839,112.22222222222223,0)" xlink:href="#P"/></g><path fill="#333" d="M233-177c-1 41-23 64-60 70L243 0h-38l-65-103H63V0H30v-248c88 3 205-21 203 71zM63-129c60-2 137 13 137-47 0-61-80-42-137-45v92" id="ac"/><g id="i"><use transform="matrix(0.06172839506172839,0,0,0.06172839506172839,0,0)" xlink:href="#G"/><use transform="matrix(0.06172839506172839,0,0,0.06172839506172839,14.814814814814813,0)" xlink:href="#H"/><use transform="matrix(0.06172839506172839,0,0,0.06172839506172839,27.160493827160494,0)" xlink:href="#I"/><use transform="matrix(0.06172839506172839,0,0,0.06172839506172839,33.333333333333336,0)" xlink:href="#J"/><use transform="matrix(0.06172839506172839,0,0,0.06172839506172839,38.20987654320988,0)" xlink:href="#I"/><use transform="matrix(0.06172839506172839,0,0,0.06172839506172839,44.38271604938272,0)" xlink:href="#K"/><use transform="matrix(0.06172839506172839,0,0,0.06172839506172839,55.49382716049384,0)" xlink:href="#ac"/><use transform="matrix(0.06172839506172839,0,0,0.06172839506172839,71.4814814814815,0)" xlink:href="#P"/><use transform="matrix(0.06172839506172839,0,0,0.06172839506172839,83.82716049382718,0)" xlink:href="#R"/><use transform="matrix(0.06172839506172839,0,0,0.06172839506172839,96.17283950617286,0)" xlink:href="#M"/><use transform="matrix(0.06172839506172839,0,0,0.06172839506172839,108.51851851851855,0)" xlink:href="#Y"/><use transform="matrix(0.06172839506172839,0,0,0.06172839506172839,119.62962962962966,0)" xlink:href="#J"/><use transform="matrix(0.06172839506172839,0,0,0.06172839506172839,124.5061728395062,0)" xlink:href="#I"/><use transform="matrix(0.06172839506172839,0,0,0.06172839506172839,130.67901234567904,0)" xlink:href="#M"/><use transform="matrix(0.06172839506172839,0,0,0.06172839506172839,143.0246913580247,0)" xlink:href="#N"/><use transform="matrix(0.06172839506172839,0,0,0.06172839506172839,150.37037037037038,0)" xlink:href="#K"/></g><g id="j"><use transform="matrix(0.06172839506172839,0,0,0.06172839506172839,0,0)" xlink:href="#V"/><use transform="matrix(0.06172839506172839,0,0,0.06172839506172839,15.987654320987653,0)" xlink:href="#N"/><use transform="matrix(0.06172839506172839,0,0,0.06172839506172839,23.333333333333332,0)" xlink:href="#W"/><use transform="matrix(0.06172839506172839,0,0,0.06172839506172839,35.67901234567901,0)" xlink:href="#U"/><use transform="matrix(0.06172839506172839,0,0,0.06172839506172839,48.02469135802469,0)" xlink:href="#ac"/><use transform="matrix(0.06172839506172839,0,0,0.06172839506172839,64.01234567901234,0)" xlink:href="#P"/><use transform="matrix(0.06172839506172839,0,0,0.06172839506172839,76.35802469135803,0)" xlink:href="#R"/><use transform="matrix(0.06172839506172839,0,0,0.06172839506172839,88.70370370370371,0)" xlink:href="#M"/><use transform="matrix(0.06172839506172839,0,0,0.06172839506172839,101.0493827160494,0)" xlink:href="#Y"/><use transform="matrix(0.06172839506172839,0,0,0.06172839506172839,112.16049382716051,0)" xlink:href="#J"/><use transform="matrix(0.06172839506172839,0,0,0.06172839506172839,117.03703703703705,0)" xlink:href="#I"/><use transform="matrix(0.06172839506172839,0,0,0.06172839506172839,123.20987654320989,0)" xlink:href="#M"/><use transform="matrix(0.06172839506172839,0,0,0.06172839506172839,135.55555555555557,0)" xlink:href="#N"/><use transform="matrix(0.06172839506172839,0,0,0.06172839506172839,142.90123456790124,0)" xlink:href="#K"/><use transform="matrix(0.06172839506172839,0,0,0.06172839506172839,154.01234567901236,0)" xlink:href="#ab"/><use transform="matrix(0.06172839506172839,0,0,0.06172839506172839,168.82716049382717,0)" xlink:href="#T"/><use transform="matrix(0.06172839506172839,0,0,0.06172839506172839,181.17283950617283,0)" xlink:href="#Y"/><use transform="matrix(0.06172839506172839,0,0,0.06172839506172839,192.28395061728395,0)" xlink:href="#P"/></g><path fill="#333" d="M63-220v92h138v28H63V0H30v-248h175v28H63" id="ad"/><g id="k"><use transform="matrix(0.06172839506172839,0,0,0.06172839506172839,0,0)" xlink:href="#G"/><use transform="matrix(0.06172839506172839,0,0,0.06172839506172839,14.814814814814813,0)" xlink:href="#ad"/></g><g id="l"><use transform="matrix(0.06172839506172839,0,0,0.06172839506172839,0,0)" xlink:href="#V"/><use transform="matrix(0.06172839506172839,0,0,0.06172839506172839,15.987654320987653,0)" xlink:href="#M"/><use transform="matrix(0.06172839506172839,0,0,0.06172839506172839,28.333333333333332,0)" xlink:href="#N"/><use transform="matrix(0.06172839506172839,0,0,0.06172839506172839,35.67901234567901,0)" xlink:href="#P"/></g><path fill="#333" d="M205 0l-28-72H64L36 0H1l101-248h38L239 0h-34zm-38-99l-47-123c-12 45-31 82-46 123h93" id="ae"/><path fill="#333" d="M240 0l2-218c-23 76-54 145-80 218h-23L58-218 59 0H30v-248h44l77 211c21-75 51-140 76-211h43V0h-30" id="af"/><g id="m"><use transform="matrix(0.06172839506172839,0,0,0.06172839506172839,0,0)" xlink:href="#ae"/><use transform="matrix(0.06172839506172839,0,0,0.06172839506172839,14.814814814814813,0)" xlink:href="#W"/><use transform="matrix(0.06172839506172839,0,0,0.06172839506172839,27.160493827160494,0)" xlink:href="#I"/><use transform="matrix(0.06172839506172839,0,0,0.06172839506172839,33.333333333333336,0)" xlink:href="#M"/><use transform="matrix(0.06172839506172839,0,0,0.06172839506172839,45.67901234567901,0)" xlink:href="#af"/><use transform="matrix(0.06172839506172839,0,0,0.06172839506172839,64.1358024691358,0)" xlink:href="#T"/><use transform="matrix(0.06172839506172839,0,0,0.06172839506172839,76.48148148148148,0)" xlink:href="#R"/><use transform="matrix(0.06172839506172839,0,0,0.06172839506172839,88.82716049382717,0)" xlink:href="#R"/><use transform="matrix(0.06172839506172839,0,0,0.06172839506172839,101.17283950617285,0)" xlink:href="#P"/><use transform="matrix(0.06172839506172839,0,0,0.06172839506172839,113.51851851851853,0)" xlink:href="#N"/></g><path fill="#333" d="M30-248c118-7 216 8 213 122C240-48 200 0 122 0H30v-248zM63-27c89 8 146-16 146-99s-60-101-146-95v194" id="ag"/><g id="n"><use transform="matrix(0.06172839506172839,0,0,0.06172839506172839,0,0)" xlink:href="#ag"/><use transform="matrix(0.06172839506172839,0,0,0.06172839506172839,15.987654320987653,0)" xlink:href="#I"/><use transform="matrix(0.06172839506172839,0,0,0.06172839506172839,22.160493827160494,0)" xlink:href="#M"/></g><path fill="#333" d="M210-169c-67 3-38 105-44 169h-31v-121c0-29-5-50-35-48C34-165 62-65 56 0H25l-1-190h30c1 10-1 24 2 32 10-44 99-50 107 0 11-21 27-35 58-36 85-2 47 119 55 194h-31v-121c0-29-5-49-35-48" id="ah"/><g id="o"><use transform="matrix(0.06172839506172839,0,0,0.06172839506172839,0,0)" xlink:href="#ag"/><use transform="matrix(0.06172839506172839,0,0,0.06172839506172839,15.987654320987653,0)" xlink:href="#M"/><use transform="matrix(0.06172839506172839,0,0,0.06172839506172839,28.333333333333332,0)" xlink:href="#ah"/><use transform="matrix(0.06172839506172839,0,0,0.06172839506172839,46.79012345679012,0)" xlink:href="#T"/><use transform="matrix(0.06172839506172839,0,0,0.06172839506172839,59.1358024691358,0)" xlink:href="#J"/><use transform="matrix(0.06172839506172839,0,0,0.06172839506172839,64.01234567901234,0)" xlink:href="#H"/></g><g id="p"><use transform="matrix(0.06172839506172839,0,0,0.06172839506172839,0,0)" xlink:href="#P"/><use transform="matrix(0.06172839506172839,0,0,0.06172839506172839,12.345679012345679,0)" xlink:href="#H"/><use transform="matrix(0.06172839506172839,0,0,0.06172839506172839,24.691358024691358,0)" xlink:href="#I"/><use transform="matrix(0.06172839506172839,0,0,0.06172839506172839,30.864197530864196,0)" xlink:href="#J"/><use transform="matrix(0.06172839506172839,0,0,0.06172839506172839,35.74074074074074,0)" xlink:href="#I"/><use transform="matrix(0.06172839506172839,0,0,0.06172839506172839,41.91358024691358,0)" xlink:href="#K"/></g><path fill="#333" d="M137 0h-34L2-248h35l83 218 83-218h36" id="ai"/><g id="q"><use transform="matrix(0.06172839506172839,0,0,0.06172839506172839,0,0)" xlink:href="#af"/><use transform="matrix(0.06172839506172839,0,0,0.06172839506172839,18.456790123456788,0)" xlink:href="#ai"/><use transform="matrix(0.06172839506172839,0,0,0.06172839506172839,33.2716049382716,0)" xlink:href="#V"/></g><path fill="#333" d="M232-93c-1 65-40 97-104 97C67 4 28-28 28-90v-158h33c8 89-33 224 67 224 102 0 64-133 71-224h33v155" id="aj"/><g id="r"><use transform="matrix(0.06172839506172839,0,0,0.06172839506172839,0,0)" xlink:href="#aj"/><use transform="matrix(0.06172839506172839,0,0,0.06172839506172839,15.987654320987653,0)" xlink:href="#H"/><use transform="matrix(0.06172839506172839,0,0,0.06172839506172839,28.333333333333332,0)" xlink:href="#J"/><use transform="matrix(0.06172839506172839,0,0,0.06172839506172839,33.20987654320987,0)" xlink:href="#I"/></g><path fill="#333" d="M101-234c-31-9-42 10-38 44h38v23H63V0H32v-167H5v-23h27c-7-52 17-82 69-68v24" id="ak"/><g id="s"><use transform="matrix(0.06172839506172839,0,0,0.06172839506172839,0,0)" xlink:href="#M"/><use transform="matrix(0.06172839506172839,0,0,0.06172839506172839,12.345679012345679,0)" xlink:href="#ak"/></g><path fill="#333" d="M206 0h-36l-40-164L89 0H53L-1-190h32L70-26l43-164h34l41 164 42-164h31" id="al"/><g id="t"><use transform="matrix(0.06172839506172839,0,0,0.06172839506172839,0,0)" xlink:href="#al"/><use transform="matrix(0.06172839506172839,0,0,0.06172839506172839,15.987654320987653,0)" xlink:href="#M"/><use transform="matrix(0.06172839506172839,0,0,0.06172839506172839,28.333333333333332,0)" xlink:href="#N"/><use transform="matrix(0.06172839506172839,0,0,0.06172839506172839,35.67901234567901,0)" xlink:href="#S"/></g><path fill="#333" d="M87 75C49 33 22-17 22-94c0-76 28-126 65-167h31c-38 41-64 92-64 168S80 34 118 75H87" id="am"/><path fill="#333" d="M33-261c38 41 65 92 65 168S71 34 33 75H2C39 34 66-17 66-93S39-220 2-261h31" id="an"/><g id="u"><use transform="matrix(0.06172839506172839,0,0,0.06172839506172839,0,0)" xlink:href="#am"/><use transform="matrix(0.06172839506172839,0,0,0.06172839506172839,7.345679012345679,0)" xlink:href="#ab"/><use transform="matrix(0.06172839506172839,0,0,0.06172839506172839,22.160493827160494,0)" xlink:href="#T"/><use transform="matrix(0.06172839506172839,0,0,0.06172839506172839,34.50617283950617,0)" xlink:href="#Y"/><use transform="matrix(0.06172839506172839,0,0,0.06172839506172839,45.61728395061728,0)" xlink:href="#P"/><use transform="matrix(0.06172839506172839,0,0,0.06172839506172839,57.962962962962955,0)" xlink:href="#an"/></g><image width="1" height="1" id="ao" xlink:href="https://images.lucid.app/images/c75d40eb-d6fb-45c8-b274-34aa167a2ef2/content" preserveAspectRatio="none"/><pattern id="v" patternUnits="userSpaceOnUse" x="869.43" y="567.58" width="392" height="265.37"><use xlink:href="#ao" transform="translate(0, 0) scale(392,265.3662551440329)"/></pattern><image width="1" height="1" id="ap" xlink:href="https://images.lucid.app/images/4038f80f-29f3-42f8-accc-b99b40fc8912/content" preserveAspectRatio="none"/><pattern id="w" patternUnits="userSpaceOnUse" x="540" y="2028.58" width="597.63" height="301.06"><use xlink:href="#ap" transform="translate(-0.054264325068061225, 0) scale(597.739628732849,301.0566666666666)"/></pattern><image width="1" height="1" id="aq" xlink:href="https://images.lucid.app/images/d81362db-79de-439f-951e-685759cde0ba/content" preserveAspectRatio="none"/><pattern id="x" patternUnits="userSpaceOnUse" x="-580" y="280" width="601.33" height="339"><use xlink:href="#aq" transform="translate(0, 0) scale(601.3333333333333,339.0016666666666)"/></pattern><image width="1" height="1" id="ar" xlink:href="https://images.lucid.app/images/6e7c47e1-3d0d-4e45-aef4-da7012616c5b/content" preserveAspectRatio="none"/><pattern id="y" patternUnits="userSpaceOnUse" x="-708.69" y="627.84" width="708.69" height="144.84"><use xlink:href="#ar" transform="translate(0, 0) scale(708.6894138232727,144.83839895013136)"/></pattern><image width="1" height="1" id="as" xlink:href="https://images.lucid.app/images/bd4e3806-684e-41e0-8631-8c76581ca2db/content" preserveAspectRatio="none"/><pattern id="z" patternUnits="userSpaceOnUse" x="-652.47" y="820" width="596.24" height="166.95"><use xlink:href="#as" transform="translate(-0.19833512494926708, 0) scale(596.6416396287259,166.94859142607166)"/></pattern><image width="1" height="1" id="at" xlink:href="https://images.lucid.app/images/6d2814fa-9756-4519-869b-5d6dabdb9e84/content" preserveAspectRatio="none"/><pattern id="A" patternUnits="userSpaceOnUse" x="-913.58" y="1049.86" width="857.36" height="118.42"><use xlink:href="#at" transform="translate(0, -0.018972149881165024) scale(857.3560804899395,118.46025291743551)"/></pattern><image width="1" height="1" id="au" xlink:href="https://images.lucid.app/images/07b5ba39-c24d-406b-a8dc-a063305dfa13/content" preserveAspectRatio="none"/><pattern id="B" patternUnits="userSpaceOnUse" x="-760" y="1203.67" width="650.11" height="220.94"><use xlink:href="#au" transform="translate(0, 0) scale(650.1060804899394,220.9396254665741)"/></pattern><image width="1" height="1" id="av" xlink:href="https://images.lucid.app/images/614de2a3-35f0-4856-96f5-7b44595a4474/content" preserveAspectRatio="none"/><pattern id="C" patternUnits="userSpaceOnUse" x="-840" y="1460" width="771.58" height="239.19"><use xlink:href="#av" transform="translate(0, -0.029906135764122155) scale(771.5783027121619,239.24908611229824)"/></pattern><image width="1" height="1" id="aw" xlink:href="https://images.lucid.app/images/4101ca80-0f68-455b-b358-434394babdc5/content" preserveAspectRatio="none"/><pattern id="D" patternUnits="userSpaceOnUse" x="540" y="1660" width="669.58" height="137.68"><use xlink:href="#aw" transform="translate(0, -0.02444151567942754) scale(669.5783027121607,137.73092152654704)"/></pattern><image width="1" height="1" id="ax" xlink:href="https://images.lucid.app/images/39fdc735-ae1b-4807-8d5b-7a4d413a72b0/content" preserveAspectRatio="none"/><pattern id="E" patternUnits="userSpaceOnUse" x="-980" y="1777.73" width="967.88" height="142.76"><use xlink:href="#ax" transform="translate(0, 0) scale(967.8807183000439,142.76240594925648)"/></pattern><image width="1" height="1" id="ay" xlink:href="https://images.lucid.app/images/5e7a4385-f8e1-4b31-a2fe-01cf48f58411/content" preserveAspectRatio="none"/><pattern id="F" patternUnits="userSpaceOnUse" x="-620" y="1959.11" width="584.97" height="291.91"><use xlink:href="#ay" transform="translate(0, 0) scale(584.9671916010499,291.91122085766676)"/></pattern></defs></g></svg>